# xmcd
#
# Track frame offsets: 
#        150
#        11636
#        22206
#        33910
#        44924
#        57781
#        73818
#        88120
#        101086
#        113730
#        128470
#        140999
#        152979
#
# Disc length: 2201 seconds
#
# Revision: 2
# Processed by: cddbd v1.5.2PL0 Copyright (c) Steve Scherf et al.
# Submitted via: ExactAudioCopy v0.95b4
#
DISCID=bd08970d
DTITLE=Hank Thompson - Seven Decades
DYEAR=2000
DGENRE=Country
TTITLE0=Sting In This Ole Bee
TTITLE1=In The Jailhouse Now
TTITLE2=Condo In Hondo
TTITLE3=Triflin' Gal
TTITLE4=Dinner For One, Please James
TTITLE5=The Night Miss Nancy Ann's Hotel For Single Girls Burned Down
TTITLE6=I'll Start Believing In You
TTITLE7=Abdul Abulbul Amir
TTITLE8=Lobo The Hobo
TTITLE9=New Wine In Old Bottles
TTITLE10=Medicine Man
TTITLE11=Scotch And Soda
TTITLE12=Wreck Of The Old '97
EXTD=
EXTT0=
EXTT1=
EXTT2=
EXTT3=
EXTT4=
EXTT5=
EXTT6=
EXTT7=
EXTT8=
EXTT9=
EXTT10=
EXTT11=
EXTT12=
PLAYORDER=
